<?xml version="1.0" standalone="no"?><!-- Generator: Gravit.io --><svg xmlns="http://www.w3.org/2000/svg" xmlns:xlink="http://www.w3.org/1999/xlink" style="isolation:isolate" viewBox="0 0 498 498" width="498" height="498"><defs><clipPath id="_clipPath_DCDh6LoX5Ts34dT6kzlUFcnOT60Lah9J"><rect width="498" height="498"/></clipPath></defs><g clip-path="url(#_clipPath_DCDh6LoX5Ts34dT6kzlUFcnOT60Lah9J)"><path d=" M 274.423 242.607 C 273.411 242.148 262.929 232.09 251.13 220.255 L 229.676 198.738 L 229.369 159.205 L 229.063 119.673 L 190.293 80.9 C 160.626 51.231 151.383 41.637 150.925 40.04 C 149.591 35.389 153.192 29.015 157.658 28.121 C 162.688 27.115 357.98 27.689 360.55 28.717 C 363.209 29.781 365.858 33.416 366.08 36.306 C 366.466 41.326 368.335 39.21 326.832 80.746 L 287.602 120.008 L 287.602 178.459 C 287.602 236.2 287.586 236.934 286.352 238.931 C 284.042 242.67 278.393 244.41 274.423 242.607 L 274.423 242.607 Z " fill="rgb(51,51,51)"/><rect x="157.052" y="249" width="41.95" height="111.859" transform="matrix(1,0,0,1,0,0)" fill="rgb(102,102,102)"/><rect x="210.651" y="297.103" width="41.95" height="63.756" transform="matrix(1,0,0,1,0,0)" fill="rgb(102,102,102)"/><rect x="264.25" y="333.564" width="41.95" height="27.295" transform="matrix(1,0,0,1,0,0)" fill="rgb(102,102,102)"/><rect x="317.848" y="297.103" width="41.95" height="63.756" transform="matrix(1,0,0,1,0,0)" fill="rgb(102,102,102)"/><rect x="157.052" y="450.419" width="41.95" height="27.29" transform="matrix(1,0,0,1,0,0)" fill="rgb(102,102,102)"/><rect x="210.651" y="425.284" width="41.95" height="52.442" transform="matrix(1,0,0,1,0,0)" fill="rgb(102,102,102)"/><rect x="264.25" y="400.654" width="41.95" height="77.072" transform="matrix(1,0,0,1,0,0)" fill="rgb(102,102,102)"/><rect x="317.848" y="383.463" width="41.95" height="94.263" transform="matrix(1,0,0,1,0,0)" fill="rgb(102,102,102)"/></g></svg>